
######## ######## ######## ##               ######## ########  ######## ######## 
##       ##       ##       ##               ##       ##     ## ##       ##       
##       ##       ##       ##               ##       ##     ## ##       ##       
######   ######   ######   ##       ####### ######   ########  ######   ######   
##       ##       ##       ##               ##       ##   ##   ##       ##       
##       ##       ##       ##               ##       ##    ##  ##       ##       
##       ######## ######## ########         ##       ##     ## ######## ######## 


Genre:Action | Thriller
Language:English
IMDb:http://www.imdb.com/title/tt1578882/
Source:IMAGiNE Thx.


Format : MPEG-4
Format profile : Base Media
Codec ID : isom
File size : 746 MiB
Duration : 1h 31mn
Overall bit rate : 1 142 Kbps
Movie name : Elephant White 2011 WP x264 Feel-Free


Video
Format settings, CABAC : Yes
Format settings, ReFrames : 4 frames
Codec ID : avc1
Codec ID/Info : Advanced Video Coding
Duration : 1h 31mn
Bit rate mode : Variable
Bit rate : 984 Kbps
Width : 720 pixels
Height : 304 pixels
Display aspect ratio : 2.35:1
Frame rate mode : Constant
Frame rate : 23.976 fps
Color space : YUV
Chroma subsampling : 4:2:0
Bit depth : 8 bits
Scan type : Progressive
Bits/(Pixel*Frame) : 0.188
Stream size : 634 MiB (85%)
Writing library : x264

Audio
ID : 2
Format : AAC
Format/Info : Advanced Audio Codec
Format version : Version 4
Format profile : LC
Codec ID : 40
Duration : 1h 31mn
Bit rate mode : Variable
Bit rate : 165 Kbps
Channel(s) : 2 channels
Channel positions : Front: L R
Sampling rate : 48.0 KHz
Stream size : 108 MiB (14%)


Plot:
A mercenary in Thailand is engaged by a 14 year old girl who gives his life a new meaning





================================== 
http://thepiratebay.org/user/hiest
==================================





Screen Shots:
 
http://www.postimg.com/29000/28898.jpg
 
http://www.postimg.com/29000/28901.jpg
 
http://www.postimg.com/29000/28899.jpg
 
http://www.postimg.com/29000/28900.jpg
 
http://www.postimg.com/29000/28902.jpg
 
http://www.postimg.com/29000/28903.jpg


######## ######## ######## ##               ######## ########  ######## ######## 
##       ##       ##       ##               ##       ##     ## ##       ##       
##       ##       ##       ##               ##       ##     ## ##       ##       
######   ######   ######   ##       ####### ######   ########  ######   ######   
##       ##       ##       ##               ##       ##   ##   ##       ##       
##       ##       ##       ##               ##       ##    ##  ##       ##       
##       ######## ######## ########         ##       ##     ## ######## ######## 
